<?xml version="1.0" encoding="UTF-8" standalone="no"?>
<svg width="18px" height="18px" viewBox="0 0 18 18" version="1.1" xmlns="http://www.w3.org/2000/svg" xmlns:xlink="http://www.w3.org/1999/xlink" xmlns:sketch="http://www.bohemiancoding.com/sketch/ns">
    <!-- Generator: Sketch 3.4.4 (17249) - http://www.bohemiancoding.com/sketch -->
    <title>bubble</title>
    <desc>Created with Sketch.</desc>
    <defs></defs>
    <g id="Page-1" stroke="none" stroke-width="1" fill="none" fill-rule="evenodd" sketch:type="MSPage">
        <g id="Icons" sketch:type="MSArtboardGroup" transform="translate(-120.000000, 0.000000)" fill="#757575">
            <path d="M128.999654,17.3506404 C124.023538,17.3506404 120,13.4994808 120,8.69712703 C120,3.89477328 124.02423,0 128.999654,0 C133.975078,0 137.999308,3.894081 137.999308,8.69712703 C137.999308,10.4278297 137.480097,12.0290758 136.571132,13.3700242 C136.527518,13.4136379 136.484597,13.5001731 136.440983,13.5430945 C136.354448,13.7161648 136.267913,13.9757702 136.267913,14.1924541 L137.219799,18 L133.585324,16.6583593 C133.412253,16.5718242 133.239183,16.5718242 133.066113,16.5718242 C132.893043,16.5718242 132.762894,16.6154379 132.589823,16.6583593 C132.54621,16.6583593 132.54621,16.701973 132.503288,16.701973 C131.421253,17.1346487 130.253375,17.3513326 128.998269,17.3513326 L128.999654,17.3506404 Z M129,16.4233846 C124.576615,16.4233846 121,13 121,8.73107692 C121,4.46215385 124.577231,1 129,1 C133.422769,1 137,4.46153846 137,8.73107692 C137,10.2695385 136.538462,11.6929231 135.730462,12.8849231 C135.691692,12.9236923 135.653538,13.0006154 135.614769,13.0387692 C135.537846,13.1926154 135.460923,13.4233846 135.460923,13.616 L136.307077,17.0006154 L133.076308,15.808 C132.922462,15.7310769 132.768615,15.7310769 132.614769,15.7310769 C132.460923,15.7310769 132.345231,15.7698462 132.191385,15.808 C132.152615,15.808 132.152615,15.8467692 132.114462,15.8467692 C131.152615,16.2313846 130.114462,16.424 128.998769,16.424 L129,16.4233846 Z" id="bubble" sketch:type="MSShapeGroup"></path>
        </g>
    </g>
</svg>