<?xml version="1.0" encoding="UTF-8" standalone="no"?>
<svg width="19px" height="16px" viewBox="0 0 19 16" version="1.1" xmlns="http://www.w3.org/2000/svg" xmlns:xlink="http://www.w3.org/1999/xlink" xmlns:sketch="http://www.bohemiancoding.com/sketch/ns">
    <!-- Generator: Sketch 3.4.4 (17249) - http://www.bohemiancoding.com/sketch -->
    <title>Shape + Shape</title>
    <desc>Created with Sketch.</desc>
    <defs></defs>
    <g id="Page-1" stroke="none" stroke-width="1" fill="none" fill-rule="evenodd" sketch:type="MSPage">
        <g id="Desktop-HD" sketch:type="MSArtboardGroup" transform="translate(-330.000000, -796.000000)" fill="#757575">
            <g id="Article-2" sketch:type="MSLayerGroup" transform="translate(330.000000, 556.000000)">
                <g id="tags" transform="translate(0.000000, 234.000000)" sketch:type="MSShapeGroup">
                    <g id="Shape-+-Shape" transform="translate(0.000000, 6.000000)">
                        <path d="M15.5,5 C14.673,5 14,4.327 14,3.5 C14,2.673 14.673,2 15.5,2 C16.327,2 17,2.673 17,3.5 C17,4.327 16.327,5 15.5,5 L15.5,5 Z M15.5,3 C15.224,3 15,3.224 15,3.5 C15,3.776 15.224,4 15.5,4 C15.776,4 16,3.776 16,3.5 C16,3.224 15.776,3 15.5,3 L15.5,3 Z" id="Shape"></path>
                        <path d="M17.5,0 L14,0 C13.312,0 12.426,0.367 11.939,0.854 L4.353,8.44 C4.07,8.723 3.915,9.099 3.915,9.501 C3.915,9.903 4.071,10.279 4.353,10.562 L6.955,13.164 L5.86,13.796 C5.745,13.862 5.611,13.879 5.481,13.845 C5.351,13.811 5.243,13.728 5.177,13.613 L1.581,7.384 C1.443,7.145 1.525,6.839 1.764,6.701 L9.75,2.09 C9.989,1.952 10.071,1.646 9.933,1.407 C9.795,1.168 9.489,1.086 9.25,1.224 L1.264,5.835 C0.918,6.035 0.67,6.358 0.566,6.746 C0.462,7.134 0.515,7.538 0.715,7.884 L4.311,14.113 C4.511,14.459 4.834,14.707 5.222,14.811 C5.352,14.846 5.484,14.863 5.614,14.863 C5.874,14.863 6.129,14.795 6.36,14.662 L7.687,13.896 L8.439,14.648 C8.722,14.931 9.098,15.086 9.5,15.086 C9.902,15.086 10.278,14.93 10.561,14.648 L18.147,7.062 C18.634,6.575 19,5.69 19,5.001 L19,1.501 C19,0.674 18.327,0.001 17.5,0.001 L17.5,0 Z M18,5 C18,5.415 17.733,6.06 17.439,6.354 L9.853,13.94 C9.759,14.034 9.634,14.085 9.499,14.085 C9.364,14.085 9.239,14.033 9.145,13.94 L5.059,9.854 C4.965,9.76 4.914,9.635 4.914,9.501 C4.914,9.367 4.966,9.241 5.059,9.147 L12.645,1.561 C12.938,1.268 13.584,1 13.998,1 L17.498,1 C17.774,1 17.998,1.224 17.998,1.5 L17.998,5 L18,5 Z" id="Shape"></path>
                    </g>
                </g>
            </g>
        </g>
    </g>
</svg>