<?xml version="1.0" encoding="UTF-8" standalone="no"?>
<svg width="13px" height="19px" viewBox="0 0 13 19" version="1.1" xmlns="http://www.w3.org/2000/svg" xmlns:xlink="http://www.w3.org/1999/xlink" xmlns:sketch="http://www.bohemiancoding.com/sketch/ns">
    <!-- Generator: Sketch 3.4.4 (17249) - http://www.bohemiancoding.com/sketch -->
    <title>bookmark fill</title>
    <desc>Created with Sketch.</desc>
    <defs></defs>
    <g id="Page-1" stroke="none" stroke-width="1" fill="none" fill-rule="evenodd" sketch:type="MSPage">
        <g id="Icons" sketch:type="MSArtboardGroup" transform="translate(-9.000000, -31.000000)" fill="#757575">
            <path d="M21.5,50 C21.357,50 21.217,49.938 21.12,49.825 L15.5,43.268 L9.88,49.825 C9.744,49.984 9.523,50.041 9.327,49.969 C9.131,49.897 9,49.709 9,49.5 L9,31.5 C9,31.224 9.224,31 9.5,31 L21.5,31 C21.776,31 22,31.224 22,31.5 L22,49.5 C22,49.709 21.87,49.896 21.673,49.969 C21.616,49.99 21.558,50 21.5,50 L21.5,50 Z" id="bookmark-fill" sketch:type="MSShapeGroup"></path>
        </g>
    </g>
</svg>